# xmcd
#
# Track frame offsets:
#	150
#	24833
#	47696
#	75285
#	96971
#	120607
#	140593
#	177306
#	204434
#	223500
#	255303
#	286754
#	307144
#
# Disc length: 4573 seconds
#
# Revision: 0
# Processed by: cddbd v1.4PL0 Copyright (c) Steve Scherf et al.
# Submitted via: dBpowerAMP V4.0
#
DISCID=ab11db0d
DTITLE=Exclipsect - Point of Focus
DYEAR=2002
DGENRE=Rhythmic Noise
TTITLE0=Spirit Vs. Ghost
TTITLE1=Digitalis
TTITLE2=Point of Focus
TTITLE3=Tectonic Torsion
TTITLE4=Sickly
TTITLE5=Rotating Parameter
TTITLE6=Chromavoid
TTITLE7=Tendriled Steel
TTITLE8=Suspect
TTITLE9=Umbra
TTITLE10=Adversary
TTITLE11=Cycle Stop
TTITLE12=Armor Plume
EXTD=
EXTT0=
EXTT1=
EXTT2=
EXTT3=
EXTT4=
EXTT5=
EXTT6=
EXTT7=
EXTT8=
EXTT9=
EXTT10=
EXTT11=
EXTT12=
PLAYORDER=
